<svg id="Layer_1" data-name="Layer 1" xmlns="http://www.w3.org/2000/svg" viewBox="0 0 511.98 511.8"><defs><style>.cls-1{fill:#fff;}</style></defs><path class="cls-1" d="M224,1.5A254.34,254.34,0,0,0,114.9,41.9C64.5,75.4,27.8,124.4,10.6,181.4A292.29,292.29,0,0,0,1,228.2c-1.3,12.5-1.3,43.1,0,55.6C7.3,343,34.2,397.9,77.6,440.1c38.3,37.1,83.4,59.9,136.8,69,15.6,2.7,51.1,3.7,68.2,1.9a253.69,253.69,0,0,0,156.5-75.6c13.9-14.3,21.7-24,32.1-39.9a253.67,253.67,0,0,0,36.2-89c3.6-18.1,4.6-29.6,4.6-50.5s-1-32.4-4.6-50.5a253.67,253.67,0,0,0-36.2-89c-10.4-15.9-18.2-25.6-32.1-39.9a253.45,253.45,0,0,0-108.5-66A292.29,292.29,0,0,0,283.8,1C270.7-.4,236.9-.1,224,1.5Zm113.7,128A60.7,60.7,0,0,1,382,172.1c2,7.5,2.1,9.2,1.8,86.5l-.3,78.9-2.3,6.2a65.35,65.35,0,0,1-37.5,37.5l-6.2,2.3-78.7.3c-87.1.3-84.1.5-97.7-6.1-9.4-4.5-21.7-16.8-26.5-26.4-6.7-13.4-6.6-11.6-6.6-95,0-50.4.4-76.9,1.1-80.5a81.38,81.38,0,0,1,5.1-13.8c7.4-15.5,23.4-28.5,40-32.6C182.5,127.4,329.2,127.5,337.7,129.5Z" transform="translate(-0.03 -0.11)"/><path class="cls-1" d="M177,144.4a47.11,47.11,0,0,0-32.6,33.1c-1.7,6.3-2,149.2-.3,156.4a46.17,46.17,0,0,0,31,33.2c5.7,1.8,10.3,1.9,80.9,1.9s75.2-.1,80.9-1.9a46.41,46.41,0,0,0,30.5-31c1.4-4.8,1.6-14.9,1.6-80.2,0-70.5-.1-75.1-1.9-80.8a46.17,46.17,0,0,0-33.2-31C327.1,142.5,182.8,142.8,177,144.4ZM343.7,164c4.3,2.6,6.4,6.1,6.5,10.7.2,12.6-13.9,18.5-22.6,9.4C317.5,173.5,331.2,156.4,343.7,164Zm-67.2,12c29.1,7.5,51.6,30,59.6,59.5,3.1,11.2,3.1,29.7.1,41a84.53,84.53,0,0,1-59.7,59.7c-11.3,3-29.8,3-41-.1a83.58,83.58,0,0,1-59.6-59.6c-3.1-11.3-3.1-29.7,0-41,10.3-38,44.8-63.8,83.1-62A94.57,94.57,0,0,1,276.5,176Z" transform="translate(-0.03 -0.11)"/><path class="cls-1" d="M250.5,190.6c-24.4,3-42.9,15.9-53,36.9-5.2,10.7-6.5,16.6-6.5,28.5s1.3,17.8,6.5,28.5A64.53,64.53,0,0,0,263.3,321c15.8-1.8,27.5-7.6,39.2-19.4,12.9-13,18.7-27.2,18.7-45.6,0-18.7-5.8-32.7-19.2-46-9.3-9.4-18.2-14.6-29.5-17.3C265.9,191,255.2,190,250.5,190.6Z" transform="translate(-0.03 -0.11)"/></svg>