<svg id="Layer_1" data-name="Layer 1" xmlns="http://www.w3.org/2000/svg" viewBox="0 0 210.51 383.34"><defs><style>.cls-1{fill:#fff;stroke:#fff;stroke-miterlimit:10;}</style></defs><path d="M123.8,204.52a2.66,2.66,0,0,0,.2-1,91.52,91.52,0,0,1-1.34-9.31,9.92,9.92,0,0,0-.46-1.86c-.7-2.25-.35-4.63-.79-6.9-.33-1.71-.69-3.41-1-5.11-.23-1.13-.46-2.26-.6-3.41-.22-1.88-.68-3.72-1-5.59-.24-1.6-.35-3.22-.55-4.82a24.74,24.74,0,0,0-.89-4.08c-.49-1.58-.66-3.27-1.1-4.89a12.14,12.14,0,0,1,.11-2,15,15,0,0,0-.37-2.09c0-.18-.16-.36-.14-.53a11.82,11.82,0,0,0-.54-3.69,2.44,2.44,0,0,1-.1-.89,8.46,8.46,0,0,0-.48-3.42,20,20,0,0,1-.5-2.42,5.12,5.12,0,0,1,.25-1.65,5.6,5.6,0,0,0,.2-2.57,26.44,26.44,0,0,0-.66-3.53c-.74-2.2-.61-4.48-.84-6.72-.29-2.75-.5-5.5-.82-8.24-.15-1.32-.51-2.6-.71-3.91a60,60,0,0,1-.58-9.28,29.49,29.49,0,0,0-.59-6,7.56,7.56,0,0,0-.12-.79c-.2-2.41-.39-4.82-.59-7.23-.07-.83-.17-1.66-.26-2.49-.21-2.18-.33-4.38-.67-6.55a20.93,20.93,0,0,0-.87-4.43,29.89,29.89,0,0,1-.68-3.09c-.4-1.53-.86-3-1.3-4.57-.1-.36-.22-.72-.33-1.08a35.87,35.87,0,0,1-1.13-6c-.19-1.64-.24-3.31-.34-5-.07-1.16-.16-2.33-.18-3.49a7.56,7.56,0,0,1,.18-1.9c.47-1.94,1-3.86,1.52-5.8a29.14,29.14,0,0,0,.65-3.35,17.24,17.24,0,0,1,2-5.5c.32-.64.61-1.3,1-1.92.25-.46.58-.88.85-1.33.73-1.19,1.42-2.42,2.19-3.58a9.66,9.66,0,0,1,1.5-1.69c.58-.55,1.25-1,1.85-1.5a15.61,15.61,0,0,1,2.7-1.6c1.84-1,3.61-2,5.47-3a27.72,27.72,0,0,1,4.53-2c1.18-.35,2.32-.84,3.48-1.26.14-.05.33-.15.43-.1a2.41,2.41,0,0,0,1.77-.15c1.4-.31,2.78-.68,4.18-1,.4-.09.82,0,1.23-.1,1.45-.22,2.9-.47,4.35-.7a5.21,5.21,0,0,1,.79,0,50.11,50.11,0,0,1,8.81.79c1.52.32,3.08.48,4.56.92,2.53.75,5.08,1.47,7.07,3.41a41.27,41.27,0,0,0,3.29,2.6,11.72,11.72,0,0,1,2.3,2.47c.69,1,1.48,1.91,2.26,2.84a15.57,15.57,0,0,1,3.33,6.76,26.38,26.38,0,0,0,1,3,2.39,2.39,0,0,1,.15.54c.17,1.23.34,2.46.48,3.69a6.76,6.76,0,0,1,0,.9,3.42,3.42,0,0,0-.06.78,41.69,41.69,0,0,1,.1,5c0,1.69.2,3.38.25,5.07a24.64,24.64,0,0,1-.09,2.72c-.14,1.8-.26,3.61-.52,5.4-.21,1.42-.63,2.81-.93,4.22-.35,1.65-.66,3.32-1,5a.76.76,0,0,1-.11.32c-1,1.12-.8,2.63-1.33,3.9a8.83,8.83,0,0,0-.27,1.45,4.13,4.13,0,0,1-.33,1.19,14,14,0,0,0-1.35,4.08v.06c-.49,1.34-1,2.68-1.47,4-.15.42-.26.86-.41,1.28-.52,1.58-1,3.16-1.57,4.73-.37,1.1-.79,2.2-1.19,3.29s-.7,1.92-1.09,2.86c-.9,2.12-1.84,4.22-2.71,6.35a29.23,29.23,0,0,0-1.52,4.36,12.22,12.22,0,0,1-1.06,2.22,9.19,9.19,0,0,0-.45,1.24c-.26.84-.92,1.5-.89,2.51,0,.53-.51,1.1-.73,1.71-.37,1-1.14,2-1.52,3s-1.25,1.61-1.38,2.54a5.8,5.8,0,0,1-1.07,2.45c-.57.82-.64,1.84-1.28,2.6-.11.14-.06.41-.1.76a2.85,2.85,0,0,0,.81-.21c.8-.57,1.58-1.17,2.35-1.77,1.23-.94,2.42-1.94,3.68-2.83,2.23-1.56,4.5-3.06,6.77-4.57q.59-.35,1.2-.63c2.24-1.18,4.43-2.47,6.74-3.49,3-1.31,6-2.67,9.38-2.94a51,51,0,0,1,8.74-.27,22.66,22.66,0,0,1,5.51,1.23,5.67,5.67,0,0,1,2.87,1.74,5.43,5.43,0,0,0,.81.62c1.62,1.27,2.62,2.81,2.15,5a4.27,4.27,0,0,0-.06,1.13,29.86,29.86,0,0,1-.61,7.66c-.35,1.85-.65,3.71-.87,5.57a14.72,14.72,0,0,1-.67,3.08,13.22,13.22,0,0,0-.15,1.78c-.16.87.08,1.8-.44,2.61a.88.88,0,0,0-.13.63c.35,1.3-.2,2.54-.27,3.81a20.73,20.73,0,0,1-.24,2.36,1,1,0,0,1-.09.55c-1,1.29-.62,2.89-1,4.31-.2.7-.31,1.4-.57,2.11a5.39,5.39,0,0,0-.68,2.28,9.06,9.06,0,0,1-.47,3.54c-.34,1.51-.75,3-1.22,4.48A33.15,33.15,0,0,1,195,176a3,3,0,0,0-.21.4c-.59,1.63-1.12,3.28-1.75,4.89-.41,1-1,2-1.42,3.08a20.32,20.32,0,0,0-1.09,2.7,12.94,12.94,0,0,1-1,2.4c-.53,1-.92,2.06-1.38,3.09-.6,1.33-1.21,2.66-1.81,4a1.5,1.5,0,0,0-.15.42,7.44,7.44,0,0,1-1.22,3.27c-.35.56-.32,1.26-.65,1.89-.63,1.22-1,2.57-1.51,3.86-.73,1.81-1.48,3.61-2.27,5.4-.44,1-1.06,1.91-1.42,2.93a30.33,30.33,0,0,1-2.35,4.39c-.88,1.58-1.69,3.2-2.68,4.71a11.92,11.92,0,0,0-1.11,2.69,22.28,22.28,0,0,1-1.32,2.63c-.37.73-.75,1.46-1.07,2.22a3.66,3.66,0,0,1-1.13,1.66.77.77,0,0,0-.3.46c0,.88-.65,1.43-1,2.14-.16.37-.3.76-.46,1.13a1.46,1.46,0,0,1-.31.59c-1.07.9-1.32,2.26-1.94,3.4-.81,1.49-1.53,3-2.31,4.55a22.59,22.59,0,0,0-1.58,3.1,21.48,21.48,0,0,1-2.1,4.14c-.34.57-.58,1.21-.87,1.81-.1.2-.14.47-.3.59a4.49,4.49,0,0,0-1.68,3,2.68,2.68,0,0,1-.46,1,28.45,28.45,0,0,0-2.3,4.54,10.45,10.45,0,0,1-.71,1.15c-.2.36-.35.75-.57,1.09a9.29,9.29,0,0,0-1.46,3c-1.56,1.94-2.48,4.26-3.79,6.35-.88,1.41-1.77,2.8-2.63,4.22s-1.7,2.93-2.56,4.4c-.26.45-.57.88-.83,1.34s-.55,1.06-.81,1.59c0,.1,0,.25-.13.32a8.36,8.36,0,0,0-1.53,2.48c-1,1.77-2.11,3.47-3.19,5.19-.2.31-.49.56-.72.85s-.64.63-.73,1a9,9,0,0,1-1.91,3.26,33.19,33.19,0,0,0-1.94,3.12c-.1.16-.12.39-.25.5a7.42,7.42,0,0,0-1.9,3.36,4.54,4.54,0,0,1-.78,1.11,7,7,0,0,0-1.12,1.81c-.25.67-1,1.11-1.27,1.83-.48,1.11-1.11,2.15-1.66,3.22-.13.27-.2.57-.33.83-.3.61-.63,1.2-.94,1.79l-1.68,3.19c-.61,1.16-.79,2.56-2,3.39-.18.13-.21.47-.34.69-.32.58-.25,1.37-1,1.71-.13.06-.18.32-.23.5a20.54,20.54,0,0,1-2.49,4.67,6.81,6.81,0,0,0-.45,1.24,2.24,2.24,0,0,1-.34.83c-1.23,1.25-1.8,2.93-2.8,4.34a19.29,19.29,0,0,0-1.55,3.12c-.07.13-.1.32-.2.4-.7.54-.87,1.41-1.35,2.06A33.5,33.5,0,0,0,105,348c-.29.59-.83,1.06-.72,1.85l-.86.27c0,.06-.12.12-.11.18a1.64,1.64,0,0,1-.46,1.31,19,19,0,0,0-1.29,2.23c-.19.36-.36.72-.55,1.08s-.41.72-.58,1.1a8.46,8.46,0,0,1-1.85,2.73,2.93,2.93,0,0,0-.48,1.12,4.9,4.9,0,0,1-.29.84A12.56,12.56,0,0,0,96.21,364a5,5,0,0,1-.6,1.08c-.77,1.24-1,2.78-2.11,3.83-.08.08-.2.19-.19.27.1,1.34-1.15,2.1-1.39,3.29a.35.35,0,0,1-.1.2c-1.26.87-1.31,2.41-2,3.58a7.79,7.79,0,0,1-1.48,1.66.93.93,0,0,1-.85.18c-1.07-.48-2.38-.64-3-1.83a3.26,3.26,0,0,1,.38-3.23c.91-1.53,1.79-3.07,2.62-4.64,1.38-2.6,2.7-5.24,4-7.86.68-1.3,1.42-2.57,2-3.91,1-2.1,2.24-4.1,3.31-6.1.93-1.81,2.1-3.5,3.11-5.27,1.67-2.92,3.28-5.88,4.93-8.81.39-.68.86-1.32,1.28-2a10.18,10.18,0,0,0,.6-1c1-1.74,2-3.45,2.89-5.26.75-1.62,1.79-3.07,2.55-4.66,1.22-2.59,2.75-5,3.92-7.63.69-1.52,1.57-2.94,2.36-4.41s1.6-3,2.42-4.48c.33-.6.69-1.17,1-1.75,1.62-2.59,3.25-5.19,4.86-7.79,1.73-2.79,3.43-5.6,5.16-8.39.62-1,1.32-1.93,1.94-2.92.36-.58.63-1.21,1-1.8s.55-1,.85-1.48c1.55-2.59,3.13-5.16,4.66-7.76.94-1.6,1.81-3.24,2.73-4.85,1.18-2.07,2.38-4.12,3.54-6.2.36-.62.61-1.3.94-1.94.52-1,1.08-2,1.62-3a13.85,13.85,0,0,0,1.39-3,16.52,16.52,0,0,1,1.37-2.6c.6-1.17,1.11-2.39,1.75-3.54a20.16,20.16,0,0,0,1.42-2.42,30.37,30.37,0,0,1,1.55-3c.62-1.17,1.22-2.35,1.85-3.51.71-1.33,1.45-2.65,2.16-4,.45-.83.86-1.68,1.3-2.51,1.26-2.37,2.54-4.73,3.78-7.11.85-1.64,1.64-3.31,2.46-5a27.77,27.77,0,0,1,1.65-3.21,25.73,25.73,0,0,0,1.43-2.76c.64-1.19,1.43-2.3,2.11-3.48.28-.48.44-1,.69-1.52.46-.9,1-1.79,1.41-2.69a18.9,18.9,0,0,0,.91-2c1.33-3.42,2.69-6.84,4-10.29s2.92-6.7,4.23-10.11c.64-1.65,1.5-3.22,2.2-4.84.45-1,.76-2.14,1.21-3.18.76-1.72,1.6-3.41,2.37-5.12.26-.58.39-1.21.61-1.81.49-1.35,1-2.68,1.49-4,.24-.71.31-1.48.49-2.21.52-2,1.08-4,1.58-6,.31-1.24.54-2.5.77-3.76.63-3.38,1.24-6.76,1.85-10.13a49.55,49.55,0,0,0,.64-5.82,5.08,5.08,0,0,1,.07-.67c.38-2.16.73-4.33,1.16-6.48a51.53,51.53,0,0,0,.62-8.14c.06-1.42-.94-2-1.91-2.56a9.93,9.93,0,0,0-4-1,55.06,55.06,0,0,0-9.17.08,5.46,5.46,0,0,0-1.74.41,31.67,31.67,0,0,0-3.4,1.16c-1.53.83-3.16,1.45-4.73,2.21-1.18.58-2.34,1.23-3.49,1.87s-2.37,1.32-3.55,2a2.92,2.92,0,0,0-.48.29c-2.94,2.31-5.87,4.64-8.82,6.94-1,.78-2.12,1.45-3.14,2.22a28.64,28.64,0,0,0-4.64,4.95c-.74.89-1.45,1.82-2.21,2.7a1,1,0,0,1-.61.23c-.48.08-1,.13-1.6.21-.65-.61-1.41-1.27-2.12-2-.22-.22-.49-.58-.45-.84a2.54,2.54,0,0,1,.52-1.45,8.39,8.39,0,0,0,1.75-3.39,14.54,14.54,0,0,0,.91-2.8,26,26,0,0,1,1.6-4.7,18.29,18.29,0,0,1,.8-1.88,47.09,47.09,0,0,1,2.39-4.63c.76-1.19,1.14-2.54,1.82-3.74a61.22,61.22,0,0,0,3-7.09c1.07-2.58,2-5.24,3.27-7.72a48.05,48.05,0,0,0,1.84-4.52A28.46,28.46,0,0,0,163,97.48c.46-1.8,1.4-3.41,1.8-5.24a39.78,39.78,0,0,1,1.49-4.39c.2-.57.4-1.14.58-1.72.35-1.11.66-2.24,1-3.35,1.11-3.49,2.34-7,3.32-10.49a44.69,44.69,0,0,0,1.9-9.22c.12-2,.45-4.07.55-6.11a45.15,45.15,0,0,0-.08-4.65v-.68a48.37,48.37,0,0,0-.29-5.77,62,62,0,0,0-1.18-6.34c-.69-2.46-2.19-4.26-3.67-6.16a11.34,11.34,0,0,0-1.31-1.54c-1-1-2.24-1.79-3.24-2.8a21.2,21.2,0,0,0-3.14-2.18,4.6,4.6,0,0,0-1-.48c-1.39-.49-2.78-1-4.18-1.42a6.6,6.6,0,0,0-.89-.14,27.59,27.59,0,0,0-5.5-.69c-1.09,0-2.18-.16-3.27-.18a9.16,9.16,0,0,0-1.81.16,86.6,86.6,0,0,0-9.73,1.62c-1.45.39-2.93.74-4.35,1.26a32.51,32.51,0,0,0-3,1.53c-2.93,1.36-5.55,3.22-8.31,4.85a3.89,3.89,0,0,0-1.1,1,21.71,21.71,0,0,0-2.86,4.17c-.7,1.46-1.52,2.87-2.2,4.35a7.69,7.69,0,0,0-.72,2.48,22.33,22.33,0,0,1-.93,4.44c-.3,1-.69,2.09-.94,3.15a17.46,17.46,0,0,0-.4,5.58q.24,2.94.6,5.88c.14,1.16.4,2.3.6,3.45.14.82.18,1.67.39,2.46.35,1.28.83,2.51,1.2,3.78.47,1.63.94,3.26,1.34,4.91s.74,3.17,1,4.78c.28,2.06.5,4.14.58,6.22.1,2.67.33,5.33.69,8,.26,1.8.45,3.61.57,5.42.17,2.5.19,5,.39,7.49s.56,4.81.86,7.22c.2,1.54.43,3.07.6,4.62.36,3.15.54,6.34,1.1,9.45.27,1.47.46,3,.67,4.43a25.82,25.82,0,0,1,.19,5.2,14.47,14.47,0,0,0,.26,3.15c.12.85.33,1.7.44,2.56.21,1.57.37,3.15.56,4.73.12,1,.31,2,.37,3,.16,2.7,1,5.27,1.37,7.93.39,2.9.72,5.82,1.17,8.72a97.65,97.65,0,0,0,1.77,10.6,45.66,45.66,0,0,1,.77,4.56c.18,1.12.37,2.24.51,3.37s.09,2,.26,2.92c.43,2.41,1,4.8,1.37,7.22a52.92,52.92,0,0,1,.85,8.23,30.74,30.74,0,0,0,.49,4.38,2.57,2.57,0,0,1,.06.55c-.08.78-.24,1.57-1,1.9a2,2,0,0,1-2.29-.53c-.53-.53-1.29-.74-1.69-1.48a3.41,3.41,0,0,1-.41-1.36,6,6,0,0,0-.42-1.72,6.73,6.73,0,0,1-.24-1.25,31.74,31.74,0,0,1-.09-3.9A3.2,3.2,0,0,0,123.8,204.52Z" transform="translate(0 0)"/><path class="cls-1" d="M128.62,205.84c1.14-5.73-1.36-12.89-2-18.66-.7-6.39-2.35-12.66-3.16-19-1.11-8.76-3.94-17.83-4-26.6-.07-11.6-3-23.27-3.36-35-.37-11-1.55-22.78-4.37-33.41s-3.83-21.06,1-31.29c2.38-5,4.76-7.9,9.62-10.56a55.21,55.21,0,0,1,14.52-5.59,38,38,0,0,1,15.3-.73c6.76,1.13,11.43,3.65,15.72,9a22.74,22.74,0,0,1,5,14.05c.22,6,.78,12.24-.35,18.25-2.07,11-5.76,21.66-9.7,32.15-2.16,5.73-4.74,11.3-6.88,17-1.84,4.92-6.22,10.35-6.92,15.56-.49,3.68,2.09,7.18,6.15,6.15,4.29-1.1,8.45-5.63,12.08-8.07,5-3.38,11.15-7.14,17.21-8.15,3.69-.62,13.35-1.7,15.6,2.61,0,.1-.23,3.86-.22,3.72a40.81,40.81,0,0,1-.48,4.4c-.53,3.34-1.21,6.66-1.72,10-1.24,8.13-2.1,16.17-4.2,24.15-2.69,10.21-8.32,19.49-11.93,29.37-6.74,18.36-16.46,35.71-25.6,53q-13.86,26.44-29.86,51.68c-2.41,3.84-4.93,7.77-7,11.84-1.17,2.31-2.21,4.75-3.48,7s-2.34,3.71-2.8,4.59c-2.47,4.68-3.94,7.27-6.32,11.57s-6,8.83-7,13.53L103,345c-4.4,1.34-6.64,7.4-8.69,11.2-2.41,4.48-4.28,9.27-6.61,13.77-.49.93-1.21,1.34-1.54,2.45l-.6,1.4c2.91,1.58,4.75,1.16,5.5-1.25,1.81-2,2.84-5.43,4.09-7.85,3.22-6.22,6.57-12.3,10-18.39,6.41-11.17,12.41-22.47,18.54-33.76,6.77-12.47,15-24.15,22-36.49,6.07-10.64,11.46-21.58,17.24-32.38,5.88-11,12.18-21.93,17.47-33.19,3-6.39,5.17-13.2,7.93-19.69s5.73-12.66,8.08-19.19c4.35-12.13,5.44-25.18,7.54-37.8,1.08-6.44,2.28-13.88-4.86-16.9-5.73-2.42-14.07-1.86-19.79.2a62.74,62.74,0,0,0-17,9.23c-3.12,2.46-6.3,4.83-9.47,7.22a28.61,28.61,0,0,0-3.48,3.12c-.39.42-3.36,4.33-3.06,4.29l3.54,1.46a11.78,11.78,0,0,1-1.8-1.8l.51,3.85c.38-1.91,2.16-4.21,2.8-6.22a67,67,0,0,1,2.28-6.8c2.46-5.63,5.44-10.92,7.69-16.66,4.45-11.37,8.8-22.47,12.58-34.11,6.52-20,10.31-52.28-15.6-60-11.36-3.41-25-1.33-35.28,4.31-5.31,2.91-9.59,5.78-12.62,11.11a52.85,52.85,0,0,0-5.63,17.44c-2,12.42,4.64,24.3,5.41,36.51.86,13.45,2.16,27,3.91,40.35,1.81,13.72,3.33,27.46,5.25,41.21,1,7.33,2.43,14.55,3.41,21.88.45,3.42,1.33,6.76,1.79,10.19.23,1.77.3,3.48.43,5.26a17.33,17.33,0,0,0,.25,2.79c0,1.76.19,1.93.74.51l3.54-1.47c.72-.06,0-1.95-.15-3.3a12.55,12.55,0,0,0-1.18-5.46c-2.88-5.76-11.51-.7-8.63,5,.24.49.28,5.1.75,6.68a9.51,9.51,0,0,0,4.39,5.83c5.16,3.25,10.87-.31,10.78-6.24-.19-13.09-3.85-26.18-5.72-39.08-3.92-26.88-7.37-53.87-9.38-81-.47-6.43-1-12.58-2.77-18.82s-4.16-13.47-2.84-20.07c1.21-6,2.76-13.53,7.82-17.45a39,39,0,0,1,18-7.25c12.47-1.92,25.7,2.11,27.7,16,2,14.19-2.14,27.66-6.71,40.92-4.08,11.86-8.38,24-14.15,35.19-2.57,5-3.94,10.18-6.21,15.2-.91,2-2.52,3.78-2.44,6.17.08,2.81,2.63,5.87,5,7.14,5.93,3.09,9.32-3,12.65-6.53a72.74,72.74,0,0,1,16.26-12.35c5-2.79,9.87-5.53,15.68-5.83a32.71,32.71,0,0,1,5.51.13c1.76.22,1.35,0,.82,1.87A80.47,80.47,0,0,0,193,138.85c-1.49,12.87-4.1,25.16-9.19,37.08-5.23,12.24-9.4,25.34-16,36.89-6.25,10.89-11.53,22.4-17.53,33.45-6.18,11.39-12.28,22.75-18.75,34C124,293.38,115.8,306,108.74,319.38,102.12,332,94.52,344,88,356.66c-1.83,3.58-3.63,7.2-5.58,10.72-1.75,3.14-4,6.39-2.66,10.16,2,5.64,9.57,7.21,13.36,2.57,2.9-3.55,4.91-8.46,6.86-12.55,2.41-5.06,5-10.17,7.77-15l-3,2.3.86-.26a5,5,0,0,0,3.49-3.5c.83-4,4.57-8.69,6.66-12.22,2.4-4,4.31-8.49,6.79-12.45,5-8,8.8-16.69,14-24.59,11.87-17.89,21.71-37,31.62-56,4.55-8.71,9-17.43,13.69-26.08,5.2-9.54,8.87-20.16,13-30.2,1.9-4.66,3.73-9.35,5.75-14,2.22-5.06,2.84-10.34,4.27-15.52,2.46-8.89,3.07-18.49,4.43-27.65.9-6.08,1.68-12.23-3.09-16.75-4.36-4.13-10.37-5.24-16.23-5.14-7.53.14-13.91,2.25-20.54,5.67a85.37,85.37,0,0,0-8.62,5.16c-2.24,1.52-5.79,5.49-8.34,6.15l6.15,6.15c.31-2.31,2.31-5.09,3.33-7.15a75.7,75.7,0,0,0,3.14-7.22c2.1-5.65,4.6-11.16,6.8-16.79a214,214,0,0,0,9.9-32.18c1.37-6.37,1.32-12.53,1.15-19-.15-5.84-.59-11-2.75-16.46-4.69-12-16.35-18.53-28.45-20.08-11.45-1.47-23.08,1.59-33.09,7.05-5.15,2.82-8.92,5.43-12,10.47s-4.62,10.25-6.17,16a44.22,44.22,0,0,0-.78,17.56c.78,6,3,11.59,4.09,17.51,2.21,12.5,2.08,25.45,3.72,38s2.23,25,3.89,37.47c.42,3.13,1.55,6.12,2,9.25.55,4,1.07,7.9,1.77,11.84s1.2,8,1.79,12c.3,2,.79,4,1.07,6,.15,1,1.06,4.4.89,5.23C117.74,209.52,127.38,212.16,128.62,205.84Z" transform="translate(0 0)"/><path d="M120.62,234.31c-.57.79-1,1.44-1.52,2.1a2.89,2.89,0,0,1-4,.84h0a2.63,2.63,0,0,1-.54-.46l-.64-.55,1.11-.15-1.1-1.48c.2-.44-.11-.87-.34-1.4a12.31,12.31,0,0,0-2.43-3.62c-.1-.11-.23-.27-.21-.39.11-1.12-.8-1.66-1.36-2.38-1.11-1.44-2.22-2.89-3.45-4.21-1.87-2-3.07-4.45-4.58-6.69a4.48,4.48,0,0,0-.61-.82,9.85,9.85,0,0,1-1.87-2.57A13.53,13.53,0,0,0,97.82,211c-.45-.59-.86-1.22-1.32-1.8-1.92-2.43-3.87-4.84-5.78-7.28-.76-1-1.4-2-2.14-3-.37-.51-.84-1-1.24-1.46-1.31-1.61-2.58-3.25-3.92-4.84-1.48-1.75-3-3.44-4.52-5.19-.73-.86-1.4-1.78-2.11-2.66-.59-.73-1.21-1.44-1.81-2.17a19.84,19.84,0,0,1-1.46-1.83A8.71,8.71,0,0,0,71.9,179c-1.58-1.45-3.07-3-4.63-4.45-1.18-1.11-2.38-2.21-3.62-3.24-2.15-1.8-4.34-3.54-6.51-5.32q-2.49-2-5-4.13c-.55-.46-1-1-1.58-1.46a61.25,61.25,0,0,0-6.92-5.3c-.46-.31-.86-.72-1.29-1.07l-5.74-4.53c-2.25-1.78-4.29-3.8-6.86-5.19-2.35-1.27-4.55-2.82-6.85-4.2a17.59,17.59,0,0,0-2.68-1.24c-.68-.28-1,0-1,.72,0,1.93.15,3.86.23,5.78.09,2.27.17,4.54.28,6.81,0,.8.16,1.59.2,2.38.12,1.92.19,3.84.31,5.76.06.91.25,1.8.3,2.71a84.56,84.56,0,0,0,.53,9c.2,1.27.13,2.58.23,3.86s.25,2.39.38,3.59a4.19,4.19,0,0,1,.11.78,17.39,17.39,0,0,0,.38,4.61c.34,2.05.47,4.14.64,6.22.19,2.37.21,4.76.52,7.12.25,1.84.29,3.68.38,5.52,0,1,.12,1.95.18,2.93a1.93,1.93,0,0,1,0,.34c-.23,2.21.33,4.34.64,6.5.16,1.12.16,2.26.28,3.39.15,1.39.39,2.76.52,4.14a14.9,14.9,0,0,1,0,1.89,3.84,3.84,0,0,0,.09.68c.3,1.66.65,3.32.9,5s.41,3.37.58,5.06c.08.9.11,1.81.17,2.72.24,3.65.43,7.31.37,11a13.55,13.55,0,0,0,0,3.92c.29,1.09,0,2.26.55,3.31a1.41,1.41,0,0,1-.18,1.18,4.41,4.41,0,0,1-3.5,2.2,2.49,2.49,0,0,1-1.33-.49,9.16,9.16,0,0,1-1.29-1.35.82.82,0,0,1-.12-.43c-.09-1.16-.18-2.33-.26-3.49v-.43c.47-.63.19-1-.43-1.4,1-.89.69-2,.69-3.08,0-3.36-.16-6.73-.23-10.09,0-1.93,0-3.86-.08-5.79a30.28,30.28,0,0,0-.58-3.78c-.21-1.15-.56-2.28-.72-3.43-.17-1.31-.18-2.64-.29-4-.18-2.26-.35-4.52-.59-6.78-.11-1.07-.36-2.14-.54-3.21a5.29,5.29,0,0,1-.08-.79c-.11-2.68-.2-5.36-.33-8,0-.91-.2-1.81-.26-2.71v-1.91c-.17-2.19-.35-4.37-.56-6.55-.17-1.85-.46-3.68-.58-5.53a37,37,0,0,1-.35-4.46,30.92,30.92,0,0,0-.47-4.6,33.92,33.92,0,0,0-.55-4.61,15,15,0,0,1-.07-2.6c-.06-1.24-.2-2.49-.24-3.73,0-.86.08-1.73.07-2.59s-.07-1.43-.13-2.14c0-.3-.12-.6-.12-.9,0-1.81-.19-3.61-.28-5.41a42.94,42.94,0,0,1-.29-4.94,48.47,48.47,0,0,0-.28-5.52c0-.82-.07-1.64-.1-2.46-.08-2.15-.21-4.29-.09-6.46s-.16-4.23-.22-6.35c0-1.55-.07-3.1,0-4.65a61.76,61.76,0,0,0-.29-8.71v-.46a10.49,10.49,0,0,0-.23-2.68,6.69,6.69,0,0,1,0-2.6,36.94,36.94,0,0,0-.09-7.58c-.08-1.43-.06-2.87-.11-4.3,0-.83-.08-1.65-.16-2.48-.13-1.27-.31-2.54-.45-3.82-.19-1.8-.37-3.61-.54-5.42-.09-1-.13-2-.21-3s-.22-2.33-.29-3.5,0-2,0-3.06c0-.61-.13-1.21-.15-1.81v-3c-.65-1.89-.06-3.84-.32-5.75a28.68,28.68,0,0,1-.25-3.06V59.36c0-1.13-.11-2.26-.18-3.39l-.41-6.45a2.72,2.72,0,0,1,0-.57,19.52,19.52,0,0,0-.2-5.76c-.23-2.14-.51-4.28-.77-6.42-.34-2.78-.72-5.55-1-8.33-.24-2.34-.36-4.68-.56-7A62.38,62.38,0,0,0,5.77,10.66a2.29,2.29,0,0,1-.14-.78,6.89,6.89,0,0,0-.24-2.67c-.22-.76.19-1.22.94-1.42a5,5,0,0,1,3.73.32A2,2,0,0,1,11,7.83c.13,1,.15,2,.25,3.06.19,2,.38,4.07.61,6.1.16,1.5.37,3,.57,4.51.06.52.15,1,.23,1.57a2.54,2.54,0,0,1,.1.55c-.26,2.67.44,5.27.59,7.9.1,1.6.73,3.09.67,4.68-.09,2.36.55,4.66.66,7a21.53,21.53,0,0,1,.26,4.32A5.74,5.74,0,0,0,15,48.76c.19,2.34.44,4.67.56,7,.09,1.73,0,3.47,0,5.2,0,2.15.19,4.3.27,6.46s.13,4.46.25,6.69c.1,1.85.3,3.7.46,5.55s.39,4,.56,6.08a15.58,15.58,0,0,0,.08,1.93c.08.9.24,1.8.35,2.69a7,7,0,0,1,.08.91,13.31,13.31,0,0,0,.51,4.26.86.86,0,0,1,0,.45,24.57,24.57,0,0,0,.18,5.07c.07,1.31,0,2.63.14,3.94.18,2.55-.07,5.1.11,7.66.13,1.81.19,3.62.34,5.43.09,1-.11,2-.08,2.94,0,1.17.16,2.33.26,3.57a1.33,1.33,0,0,0,.56-.07,7.16,7.16,0,0,0,2.55-2.88c.07-.18.09-.41.21-.51a7.19,7.19,0,0,0,1.54-2.61c.62-1.24,1.39-2.42,2-3.65a3.77,3.77,0,0,0,.84-2.3c0-.12.12-.26.18-.4.3-.78.61-1.55.89-2.33s.54-1.78.89-2.65c.8-2,1.19-4.23,2.61-6A24.44,24.44,0,0,0,32.93,99a31.31,31.31,0,0,0,1.59-2.9c.68-1.45,1.27-3,1.93-4.4.32-.69.75-1.32,1.07-2,.42-.89.72-1.83,1.16-2.7.64-1.29,1.37-2.52,2-3.8s1.35-2.66,2-3.89,1.47-2.71,2.24-4c1-1.84,2.13-3.66,3.19-5.49a13.34,13.34,0,0,1,2.77-4,2.15,2.15,0,0,0,.37-.57l1.93-3.31a.78.78,0,0,1,.22-.26,6.83,6.83,0,0,0,1.93-2.61c.85-1.61,1.7-3.21,2.61-4.79,1-1.82,2.3-3.54,3.18-5.44s2.2-3.33,3.13-5.12a30.28,30.28,0,0,1,3.63-5.2C69,37.09,70,35.52,71,34c.51-.75,1-1.52,1.49-2.28.77-1.16,1.53-2.34,2.32-3.49s1.42-2,2.12-3.06c.24-.34.45-.7.66-1.06s.2-.52.39-.68a20.51,20.51,0,0,0,3.89-5c1-1.63,2-3.28,3.08-4.87a14.14,14.14,0,0,1,1.79-2c.51-.52.79-.5,1.41-.13l1.46.85a2.35,2.35,0,0,1,.94,3.19h0c-.75,1.09-1.6,2.09-2.37,3.19q-1.35,1.9-2.64,3.81A4,4,0,0,1,84.17,24a1.49,1.49,0,0,0-.38.41c-1.5,2.13-3,4.27-4.48,6.41a7.61,7.61,0,0,1-.55.72,4.3,4.3,0,0,0-1.23,2,3.53,3.53,0,0,1-1.17,1.5,7.61,7.61,0,0,0-1.58,2.19,25.34,25.34,0,0,1-1.8,3c-1.34,2-2.65,4-4.12,6a10.81,10.81,0,0,0-1.73,3,2.8,2.8,0,0,1-.62.94,11.16,11.16,0,0,0-1.84,3c-.2.4-.45.78-.69,1.17-.35.57-.86,1.06-.81,1.83,0,.19-.21.39-.32.58l-2.07,3.57a3.13,3.13,0,0,1-.36.58,77.73,77.73,0,0,0-5.45,8c-.3.48-.69.9-1,1.38s-.71,1.24-1.06,1.87c-.13.23-.23.47-.36.7L50.73,76c-.24.42-.47.86-.7,1.28a3.84,3.84,0,0,0-.45.79,17.28,17.28,0,0,1-1.87,3.43,39.18,39.18,0,0,0-2.85,5.4c-.55,1.59-1.4,3.08-2.11,4.62-.64,1.37-1.25,2.76-1.89,4.13a28.65,28.65,0,0,1-2.73,5.2c-.7.93-1,2.11-1.67,3.09a28.68,28.68,0,0,0-2.7,5.61c-.23.63-.34,1.31-.52,2a36.18,36.18,0,0,1-3.25,7.6c-.7,1.29-1.22,2.68-1.91,4A29.91,29.91,0,0,1,26,126.52a27.27,27.27,0,0,1-2.09,2.34,16.32,16.32,0,0,0-3,4.56c.71.33,1.36.68,2,.94A25.88,25.88,0,0,1,27.77,137c2,1.26,4.07,2.32,6,3.6,1.64,1.08,3.17,2.32,4.71,3.53a44.15,44.15,0,0,1,3.86,3.17,29,29,0,0,0,2.84,2.23c1.94,1.37,3.88,2.76,5.71,4.27s3.21,3,4.86,4.44c.88.77,1.87,1.4,2.8,2.12.52.34,1,.7,1.52,1.09A28.36,28.36,0,0,0,64.33,165,15.51,15.51,0,0,1,66,166.34c1,.87,2.11,1.71,3.11,2.63,1.59,1.46,3.1,3,4.69,4.44a43.91,43.91,0,0,1,3.78,4.5,7.46,7.46,0,0,0,.81.78,3.63,3.63,0,0,1,.49.47A62,62,0,0,0,84,185.52c2.2,2.55,4.35,5.14,6.52,7.71.78.91,1.63,1.77,2.38,2.71s1.22,1.71,1.83,2.57c.15.22.27.45.44.66,1.56,1.94,3.13,3.89,4.71,5.82a13,13,0,0,1,1.35,1.52c.7,1.21,2,2,2.52,3.3a8.57,8.57,0,0,0,1,1.33c1.58,2.31,3.11,4.65,4.73,6.93.67,1,1.49,1.78,2.24,2.67s1.66,2,2.52,3a19.43,19.43,0,0,0,1.42,1.45c.28.27.63.42.52,1-.06.33.39.76.6,1.14l1.67,2.94.59,1.08Z" transform="translate(0 0)"/><path class="cls-1" d="M116.3,231.79c-1.36,1.3-1,1.61,1.16.91l-2.2,8.36,1.11-.16c3-.41,4.76-5,3-7.34-1.45-1.95.45,1.7-.61-1a24.25,24.25,0,0,0-1.5-3.23,46.6,46.6,0,0,0-3.49-5.41c-3.82-4.83-7.23-9.84-11-14.74-7.7-10.07-15.7-19.8-23.8-29.63-7.59-9.28-17.56-16.86-26.83-24.41-5.38-4.38-10.94-8.68-16.44-12.91C31.52,139,24.94,134,19.52,133.77a5.11,5.11,0,0,0-4.83,3.67c-1.38,4.43-.15,10.65.15,15.27.33,5.22.63,10.44.94,15.66.65,10.87,2.11,21.64,2.85,32.53.64,9.49,1.37,18.9,2.8,28.3a106.36,106.36,0,0,1,1.09,16.24c0,2.11-.67,5.4.2,7.42l.17,1.33,3.06-1c.61,1,.79.88.53-.22-.16-.88-.17-1.14,0-.77a5.07,5.07,0,0,0-1.3-4.89l-.62-.6.78,6.06c1.87-3,1.37-6.42,1.29-9.8-.11-4.72.15-9.57-.55-14.24a228.92,228.92,0,0,1-2.7-24.21c-.33-8.15-1.46-16.24-1.93-24.37-.38-7.38-1.05-14.83-1.58-22.25-.59-8.41-.83-16.82-1-25.25-.11-7.71-1-15.55-.88-23.21.26-15.82-2-31.62-2.52-47.43-.29-9.06-.64-18-1.77-27-.64-5.17-1-10.33-1.53-15.5-.37-4.27-2.16-9.1-1.65-13.33L8,10.52c-1.27.75-2.09-3.21-1.71,1q.13,1.5.3,3c.23,2.27.5,4.53.81,6.8.58,4.26.79,8.6,1.33,12.92,1.29,10.18,1.52,20.37,2,30.61.43,9.51,1.17,19,2,28.43.89,10.31.5,20.82,1.39,31.17.21,2.44,2.13,5.34,5,5,5.38-.65,7.55-5.51,9.84-9.77,2.42-4.51,3.5-9.06,5.57-13.77,1.26-2.88,3.43-5.29,4.77-8.19,1.07-2.29,2.1-4.58,3.18-6.86q3.87-8.13,8.4-15.92c2.63-4.53,5.9-8.57,8.56-13,3.14-5.23,6-10.65,9.17-15.83s7.06-10.32,10.56-15.49c1.69-2.49,3.55-4.73,5.34-7.1,1.62-2.21,3.2-6.8,5.5-8.17l-3.86.51c-.14-2.24-.62-2.53-1.42-.87L84,16.05c-.9,1.24-1.68,2.61-2.64,3.81-2,2.47-3.81,5.05-5.69,7.62C72.3,32,69.44,36.79,66.2,41.41a96.13,96.13,0,0,0-7.68,12.68c-2.55,5.14-6.41,9.64-9.41,14.52-6,9.91-10.21,20.7-15.89,30.7-2.89,5.11-4.26,10.57-6.77,15.8a46,46,0,0,1-4.53,8.33c-1.91,2.49-3.93,4.48-5.31,7.36-1.1,2.27-.79,5.59,1.79,6.84a131.57,131.57,0,0,1,31.53,21.82c8.66,8,17.87,14.57,25.55,23.57,8.16,9.56,16.33,19.26,23.89,29.29,3.39,4.5,6.37,9.19,10,13.48.76.89,1.51,1.76,2.32,2.61s-1-2.2,0,.3c1.16,2.77,3.06,5.48,4.51,8.12,3.11,5.64,11.75.6,8.64-5-2.43-4.41-4.31-8.32-7.61-12-4.07-4.57-7.15-9.82-10.85-14.65-7.7-10.14-16.14-19.85-24.27-29.66-7.65-9.26-17.43-16.2-26.36-24.13-9.75-8.66-20.6-16.62-32.35-22.27L25.19,136c2-4.22,5.71-7.3,7.81-11.56A103.38,103.38,0,0,0,38.52,111c1.5-4.47,4.63-8.42,6.6-12.71a153.32,153.32,0,0,1,7-14.23c2.18-3.68,4-7.59,6.27-11.24,2.61-4.21,5.73-8.08,8.18-12.39A215.71,215.71,0,0,1,80.65,37.83c2.69-3.61,5.08-7.48,7.9-11,2.37-2.94,6.53-7.48,7.19-11.27.75-4.22-2.49-8.19-6.56-9.19-5.29-1.3-8.16,4.06-10.54,7.84C73.14,23,66.32,31,60.78,39.79c-5.2,8.22-9.6,16.8-15.26,24.66-6.38,8.86-10.45,19.35-15.2,29-1.39,2.83-3.48,5.16-4.76,8-1,2.25-1.63,4.64-2.46,6.94-1.52,4.21-3.51,9.64-7,12.48l3.54-1.47-.56.07,5,5c-1.12-12.91-.93-25.93-2-38.85C21,72.39,20.7,59.16,20,45.92c-.69-12.22-2.67-24.4-3.85-36.68C15.52,3.63,12.46-.31,6.28.64S0,6.77.92,11.87C3.34,25.26,4.26,39.08,5.14,52.63c.78,12.06.7,24.1,2,36.13,1.3,12.48,1.27,25,1.52,37.54.25,12.35,1.37,24.7,1.5,37,.16,14.29,2.74,28.52,3.3,42.82a170.76,170.76,0,0,0,1.81,19.29,96.47,96.47,0,0,1,1.25,13.35c0,1.68.1,3.37.13,5q0,1.68.06,3.36c.06,1.23.06,1.42,0,.55a5.08,5.08,0,0,0,.78,6.06l.63.6-1.3-4.81c-1.07,4.35-.34,9.63,3.75,12.14,4.48,2.75,11.19-.14,12.4-5.28.59-2.53-.5-5.28-.53-7.83,0-3.5,0-7-.19-10.46-.35-6.43-1.26-12.85-2.06-19.21-1.58-12.57-2.3-25.33-3.33-38-.55-6.67-.85-13.38-1.46-20-.3-3.21-.45-6.45-.63-9.67-.17-3-1.29-8.37-.41-11.17l-4.84,3.73c1.85.07,6.17,3.78,7.76,4.79a79.88,79.88,0,0,1,7.28,5.55c4.7,3.77,9.59,7.28,14.1,11.27,8.72,7.71,17.78,14.4,25.13,23.54,7.2,8.92,14.73,17.6,21.42,26.83,1.63,2.23,3.12,4.5,4.67,6.8,1.69,2.51,4,4.55,5.66,7.08,1,1.61,1.94,3.19,3.11,4.78,2.62,3.57-1.08-2.12.5,1.52a12.51,12.51,0,0,0,1.6,2.68l3-7.35-1.11.15c-3.68.51-4.85,6.09-2.21,8.36,5.76,4.94,10.54,2.57,14.55-2.93C128.73,231.63,120.07,226.64,116.3,231.79Z" transform="translate(0 0)"/></svg>