<svg id="Layer_1" data-name="Layer 1" xmlns="http://www.w3.org/2000/svg" viewBox="0 0 511.94 511.91"><defs><style>.cls-1{fill:#fff;}</style></defs><path class="cls-1" d="M229,1.1C162.4,7.9,98.3,43,55.8,96A262.17,262.17,0,0,0,3.6,211c-5.4,29.9-4.8,68.4,1.5,97.7C15.4,357.4,37.6,398.9,72,434.4c36.1,37.3,80.7,62,131,72.6,31.9,6.7,72.9,6.8,105.8.1,99.5-20.4,178.9-100.5,198.6-200.5,4-20,4.9-32.4,4.3-57.3-.9-40.1-8.3-71.1-25.3-105.8-12.9-26.4-27.2-46.4-48.9-68.1-22.1-22.2-40.9-35.6-69-49.5A260.69,260.69,0,0,0,281.6,1.1C269-.2,241.4-.1,229,1.1Zm92,152.3c8.2,2.6,13.6,5.3,19.4,10.1l5.8,4.6,9-2.6a104,104,0,0,0,16.1-6.1c3.8-1.9,7.3-3.3,7.8-3.2,1.2.4-4.5,11.7-8.2,16.1a63.47,63.47,0,0,1-8.3,7.9l-5.1,4.1,4.5-.8c3.7-.6,13.5-3.3,22.4-6.2,1.1-.4,1.7-.2,1.5.5-1,2.7-12.1,14.9-18.6,20.4l-7.3,6.1v10.2c0,18.9-5.3,40.8-14.4,60-19.6,41.2-53.7,69.9-96.2,81C210.1,365.8,168,361,134,342.2l-8.5-4.7,15.5-.7c11.8-.5,17.9-1.2,25.4-3.2,10.8-2.8,25.1-9.3,33.1-15l5-3.6H201c-10.7,0-23.3-6.1-33-15.9-6.6-6.7-13-16.4-13-19.9,0-.6,2.7-.8,6.4-.5a58.35,58.35,0,0,0,11.2-.2l4.8-.7-7-2.7a62.5,62.5,0,0,1-11.6-5.9c-12.9-8.8-22.8-25.9-22.8-39.3v-4.7l5.8,2.4a60.35,60.35,0,0,0,11,3l5.2.7-6.4-6.6c-12.4-12.6-18-30.8-14.6-46.7a81.94,81.94,0,0,1,3.7-10.8l2.6-6.3,9.1,9.2c25.3,25.8,59.4,42.2,94.5,45.5l7.3.7-.7-2.4c-1.5-4.6-.7-18.2,1.4-25,5.6-17.8,21.5-32.2,40.1-36.4C302.4,150.8,314,151.2,321,153.4Z" transform="translate(0.07 -0.16)"/></svg>