<svg xmlns="http://www.w3.org/2000/svg" xmlns:lucid="lucid" width="1506" height="1048"><g lucid:page-tab-id="0_0"><path d="M-1987.87-1372.83h3677.74v2581.66h-3677.74z" fill="#fff"/><path d="M-21-28c0-3.3 2.7-6 6-6h1548c3.3 0 6 2.7 6 6v1148c0 3.3-2.7 6-6 6H-15c-3.3 0-6-2.7-6-6z" stroke="#eee5e9" stroke-width="3" fill="#eee5e9"/><path d="M-40.78 994.88c0 3.32 1.9 4.1 4.26 1.76L1029.64-69.52c2.35-2.35 1.56-4.25-1.76-4.26L-37.68-76.66c-3.3 0-6 2.67-5.98 5.98z" stroke="#c1666b" stroke-width="3" fill="#c1666b"/></g></svg>